<?xml version="1.0" encoding="utf-8"?>
<!-- Generator: Adobe Illustrator 16.0.0, SVG Export Plug-In . SVG Version: 6.00 Build 0)  -->
<!DOCTYPE svg PUBLIC "-//W3C//DTD SVG 1.1//EN" "http://www.w3.org/Graphics/SVG/1.1/DTD/svg11.dtd">
<svg version="1.1" id="Layer_1" xmlns="http://www.w3.org/2000/svg" xmlns:xlink="http://www.w3.org/1999/xlink" x="0px" y="0px"
	 width="269.418px" height="203.879px" viewBox="0 0 269.418 203.879" enable-background="new 0 0 269.418 203.879"
	 xml:space="preserve">
<g opacity="0.6">
	<path d="M182.614,48.963V11.241c-3.527-0.61-7.125-0.172-10.684-0.336c0.006-2.632,0.006-5.266-0.018-7.899
		c-22.621,0-45.237,0.008-67.854-0.005c-0.034,2.639-0.034,5.285-0.017,7.922c-2.903,0.019-5.802,0.012-8.708,0.012
		c-0.031,11.981,0.169,23.968-0.159,35.951c0.065,6.967-0.158,13.944,0.193,20.903c-2.967,0.031-5.935,0.043-8.908,0.043
		c0.01,2.951,0.007,5.893,0,8.837c-3.968,0-7.942-0.014-11.909,0.017c0,2.877,0,5.747,0.012,8.624
		c-4.278,0.019-8.549,0-12.828,0.019c-0.048,3.23-0.024,6.46-0.038,9.69c-2.687,0.01-5.375,0.01-8.067,0.048
		c-0.006,2.644-0.006,5.283,0.012,7.927C47.281,103,40.912,102.976,34.55,103c0.006-3.194,0.036-6.393-0.073-9.587
		c-2.822-0.005-5.637,0-8.453,0.007c0-2.925,0.006-5.845-0.049-8.763c-2.925,0.024-5.856,0.024-8.781-0.007
		c-0.013-5.601,0.024-11.194-0.006-16.795c-2.603-0.073-5.21-0.073-7.813,0.048c0.189,16.882-0.555,33.792,0.201,50.655
		c2.596,0.226,5.205,0.067,7.806,0.105c0.012,2.32,0.012,4.648,0.012,6.977c2.895,0.018,5.796,0.018,8.691-0.007
		c0.085,2.949,0.055,5.898,0.066,8.85c6.24,0.031,12.475-0.031,18.709,0.041c0,6.126-0.006,12.25,0.007,18.381
		c2.236,0.06,4.472,0.067,6.709,0.017c0.018,11.671-0.006,23.342,0.018,35.013c6.222,0.029,12.451-0.012,18.678,0.024
		c0.084-2.925,0.067-5.857,0.061-8.787c-3.608-0.012-7.215-0.007-10.821-0.007c-0.007-2.98-0.007-5.954,0.029-8.929
		c3.205,0.055,6.403,0.074,9.609-0.031c-0.065-2.625-0.048-5.259,0.024-7.886c2.651,0.033,5.309,0.043,7.96,0.014
		c0.024-3.133,0.038-6.265-0.018-9.39c3.254,0.029,6.514,0.005,9.768,0.015c0.007,3.127,0.012,6.254-0.005,9.382
		c2.947,0.012,5.898-0.026,8.849,0.108c0.072,8.501-0.367,17.002,0.01,25.498c6.21-0.007,12.421,0.012,18.636-0.012
		c0-2.92-0.007-5.845-0.007-8.763c-4.137-0.012-8.269-0.007-12.4-0.007c0.024-6.29-0.098-12.573,0.14-18.855
		c-0.274-5.375-0.127-10.756-0.243-16.137c2.93-0.142,5.875-0.123,8.812-0.11c-0.01-3.187-0.018-6.381,0.014-9.575
		c3.168,0,6.336,0,9.506-0.005c-0.019-3.889-0.012-7.771,0.005-11.659c3.12-0.084,6.247-0.048,9.374-0.06
		c0.031-9.825,0.031-19.653,0-29.483c2.84-0.019,5.681-0.019,8.52,0.005c0.024,2.656,0.024,5.314,0.024,7.972
		c2.577,0.031,5.156,0.031,7.734-0.012c-0.214-5.193,0.462-10.385-0.031-15.572c-5.412,0-10.828-0.029-16.247,0.012
		c0.017-6.696,0.043-13.395-0.012-20.098c10.988,0.123,21.982,0.005,32.975,0.061c0.049-1.918,0.063-3.846,0.049-5.766
		c-8.215,0.012-16.43-0.01-24.649,0.005c0.071-3.563,0.071-7.129,0.018-10.694C152.845,49.292,167.731,49.237,182.614,48.963z
		 M120.49,21.216c-3.002-0.005-6.009,0.024-9.006-0.036c-0.084-3.053-0.05-6.102-0.053-9.147c3.027-0.037,6.05-0.012,9.073-0.026
		C120.538,15.078,120.569,18.144,120.49,21.216z"/>
	<g>
		<path d="M141.638,148.038c13.079,0,19.646,9.995,19.646,19.99c0,9.995-6.567,19.933-19.646,19.933h-14.336v-39.922H141.638z
			 M141.638,182.191c9.252,0,13.936-7.082,13.936-14.164s-4.684-14.221-13.936-14.221h-8.567v28.385H141.638z"/>
		<path d="M181.384,153.749h-7.425v28.442h7.425v5.769h-20.618v-5.769h7.425v-28.442h-7.425v-5.711h20.618V153.749z"/>
		<path d="M184.237,187.96v-40.037l4.455,0.057l19.476,28.157V147.98h5.711v39.979h-4.569l-19.304-27.929v27.929H184.237z"/>
		<path d="M222.727,153.521c3.655-3.712,8.796-6.054,14.393-6.054c5.654,0,10.738,2.342,14.45,6.054
			c3.599,3.712,5.939,8.795,5.939,14.45s-2.341,10.737-5.939,14.45c-3.712,3.77-8.796,6.054-14.45,6.054
			c-5.597,0-10.737-2.285-14.393-6.054c-3.598-3.712-5.939-8.795-5.939-14.45S219.129,157.233,222.727,153.521z M247.457,157.633
			c-2.685-2.685-6.396-4.341-10.338-4.341c-3.94,0-7.596,1.656-10.223,4.341c-2.628,2.627-4.284,6.282-4.284,10.337
			s1.656,7.71,4.284,10.337c2.627,2.685,6.282,4.341,10.223,4.341c3.941,0,7.653-1.656,10.338-4.341
			c2.57-2.627,4.227-6.225,4.227-10.337S250.027,160.26,247.457,157.633z"/>
	</g>
</g>
</svg>
